# xmcd CD database file
#
# Track frame offsets:
#	150
#	11647
#	26557
#	39900
#	58240
#	69762
#	85780
#	102970
#	117000
#	128132
#	150165
#	162585
#	176915
#	198825
#	220377
#	242742
#	269895
#	280465
#	301085
#	312130
#
# Disc length: 4316 seconds
#
# Revision: 2
# Processed by: cddbd v1.5.2PL0 Copyright (c) Steve Scherf et al.
# Submitted via: CDex 1.51
#
DISCID=1210da14
DTITLE=The Blues Project - The Blues Project Anthology (Disc-1)
DYEAR=1900
DGENRE=Blues
TTITLE0=I'm Troubled
TTITLE1=Back Door Man
TTITLE2=Violets Of Dawn
TTITLE3=Goin' Down Louisiana
TTITLE4=Hoochie Coochie Man
TTITLE5=Parchman Farm
TTITLE6=You Go And I'll Go With You
TTITLE7=Catch The Wind
TTITLE8=I Want To Be Your Driver
TTITLE9=Alberta
TTITLE10=Have You Ever Had The Blues?
TTITLE11=The Way My Baby Walks
TTITLE12=Bright Lights, Big City
TTITLE13=Jelly, Jelly Blues
TTITLE14=Spoonful
TTITLE15=Who Do You Love?
TTITLE16=Love Will Endure
TTITLE17=I Can't Keep From Cryin' Sometimes
TTITLE18=Friday Night City
TTITLE19=Where There's Smoke There's Fire
EXTD=
EXTT0=
EXTT1=
EXTT2=
EXTT3=
EXTT4=
EXTT5=
EXTT6=
EXTT7=
EXTT8=
EXTT9=
EXTT10=
EXTT11=
EXTT12=
EXTT13=
EXTT14=
EXTT15=
EXTT16=
EXTT17=
EXTT18=
EXTT19=
PLAYORDER=
